# xmcd CD database file
#
# Track frame offsets:
#	150
#	12614
#	24420
#	41272
#	54631
#	64004
#	75355
#	91533
#	114570
#	136930
#	148316
#
# Disc length: 2251 seconds
#
# Revision: 0
# Processed by: cddbd v1.5.2PL0 Copyright (c) Steve Scherf et al.
# Submitted via: CDex 1.51
#
DISCID=8708c90b
DTITLE=PETER BONZO RADVÁNYI - The two faces of
DYEAR=1998
DGENRE=Blues
TTITLE0=Acoustic face -Travelling blues
TTITLE1=Acoustic face - Sick and tired
TTITLE2=Acoustic face - Average man blues
TTITLE3=Acoustic face - The king of the blues
TTITLE4=Acoustic face -Talking women blues
TTITLE5=Electric face - Stále prsi
TTITLE6=Electric face - Looking for somebody
TTITLE7=Electric face - Bach water blues
TTITLE8=Electric face - Hey little baby
TTITLE9=Electric face - Nemán hlad
TTITLE10=Electric face - Deep in the Blues
EXTD=YEAR: 1998
EXTT0=
EXTT1=
EXTT2=
EXTT3=
EXTT4=
EXTT5=
EXTT6=
EXTT7=
EXTT8=
EXTT9=
EXTT10=
PLAYORDER=
